<mxfile host="app.diagrams.net" agent="Mozilla/5.0 (X11; Ubuntu; Linux x86_64; rv:130.0) Gecko/20100101 Firefox/130.0" version="26.2.5">
  <diagram name="Pàgina-1" id="po-mnbRJzyEunORz8oTl">
    <mxGraphModel dx="1704" dy="1073" grid="1" gridSize="10" guides="1" tooltips="1" connect="1" arrows="1" fold="1" page="0" pageScale="1" pageWidth="827" pageHeight="1169" math="0" shadow="0">
      <root>
        <mxCell id="0" />
        <mxCell id="1" parent="0" />
        <mxCell id="zYWPEiQ45k5dK-6ogbUJ-6" value="&lt;div style=&quot;box-sizing: border-box; width: 100%; background: rgb(228, 228, 228); padding: 2px;&quot;&gt;Partida&lt;/div&gt;&lt;table style=&quot;width:100%;font-size:1em;&quot; cellpadding=&quot;2&quot; cellspacing=&quot;0&quot;&gt;&lt;tbody&gt;&lt;tr&gt;&lt;td&gt;PK&lt;/td&gt;&lt;td&gt;idPartida&lt;/td&gt;&lt;/tr&gt;&lt;tr&gt;&lt;td&gt;FK1&lt;/td&gt;&lt;td&gt;idUsuario&lt;/td&gt;&lt;/tr&gt;&lt;tr&gt;&lt;td&gt;&lt;br&gt;atributos&lt;/td&gt;&lt;td&gt;idHistorico&lt;br&gt;&lt;br&gt;fecha&lt;br&gt;palabra&lt;br&gt;adivinada&lt;br&gt;idioma&lt;br&gt;&lt;/td&gt;&lt;/tr&gt;&lt;/tbody&gt;&lt;/table&gt;" style="verticalAlign=top;align=left;overflow=fill;html=1;whiteSpace=wrap;" vertex="1" parent="1">
          <mxGeometry x="210" y="260" width="180" height="150" as="geometry" />
        </mxCell>
        <mxCell id="zYWPEiQ45k5dK-6ogbUJ-7" value="Administrador&lt;table style=&quot;width:100%;font-size:1em;&quot; cellpadding=&quot;2&quot; cellspacing=&quot;0&quot;&gt;&lt;tbody&gt;&lt;tr&gt;&lt;td&gt;PK&lt;/td&gt;&lt;td&gt;&lt;br&gt;idUsuario&lt;/td&gt;&lt;/tr&gt;&lt;tr&gt;&lt;td&gt;FK&lt;br&gt;&lt;/td&gt;&lt;td&gt;idUsuario&lt;br&gt;&lt;/td&gt;&lt;/tr&gt;&lt;tr&gt;&lt;td&gt;&lt;br&gt;atributos&lt;br&gt;&lt;/td&gt;&lt;td&gt;&lt;br&gt;&lt;br&gt;tipo&lt;br&gt;&lt;br&gt;&lt;/td&gt;&lt;/tr&gt;&lt;/tbody&gt;&lt;/table&gt;" style="verticalAlign=top;align=left;overflow=fill;html=1;whiteSpace=wrap;" vertex="1" parent="1">
          <mxGeometry x="-360" y="180" width="180" height="110" as="geometry" />
        </mxCell>
        <mxCell id="zYWPEiQ45k5dK-6ogbUJ-8" value="Jugador&lt;table style=&quot;width:100%;font-size:1em;&quot; cellpadding=&quot;2&quot; cellspacing=&quot;0&quot;&gt;&lt;tbody&gt;&lt;tr&gt;&lt;td&gt;PK&lt;/td&gt;&lt;td&gt;idUsuario&lt;br&gt;&lt;br&gt;&lt;/td&gt;&lt;/tr&gt;&lt;tr&gt;&lt;td&gt;FK1&lt;/td&gt;&lt;td&gt;idPartida&lt;/td&gt;&lt;/tr&gt;&lt;tr&gt;&lt;td&gt;&lt;br&gt;atributos&lt;/td&gt;&lt;td&gt;idHistorico&lt;br&gt;idUsuario&lt;br&gt;&lt;br&gt;ranking&lt;br&gt;&lt;br&gt;&lt;br&gt;&lt;/td&gt;&lt;/tr&gt;&lt;/tbody&gt;&lt;/table&gt;" style="verticalAlign=top;align=left;overflow=fill;html=1;whiteSpace=wrap;" vertex="1" parent="1">
          <mxGeometry x="-40" y="180" width="180" height="130" as="geometry" />
        </mxCell>
        <mxCell id="zYWPEiQ45k5dK-6ogbUJ-11" style="edgeStyle=orthogonalEdgeStyle;rounded=0;orthogonalLoop=1;jettySize=auto;html=1;entryX=0.5;entryY=0;entryDx=0;entryDy=0;" edge="1" parent="1" source="zYWPEiQ45k5dK-6ogbUJ-10" target="zYWPEiQ45k5dK-6ogbUJ-7">
          <mxGeometry relative="1" as="geometry">
            <Array as="points">
              <mxPoint x="-270" y="85" />
            </Array>
          </mxGeometry>
        </mxCell>
        <mxCell id="zYWPEiQ45k5dK-6ogbUJ-10" value="Usuario&lt;table style=&quot;width:100%;font-size:1em;&quot; cellpadding=&quot;2&quot; cellspacing=&quot;0&quot;&gt;&lt;tbody&gt;&lt;tr&gt;&lt;td&gt;PK&lt;/td&gt;&lt;td&gt;idUsuario&lt;br&gt;&lt;/td&gt;&lt;/tr&gt;&lt;tr&gt;&lt;td&gt;&lt;br&gt;&lt;/td&gt;&lt;td&gt;&lt;br&gt;&lt;/td&gt;&lt;/tr&gt;&lt;tr&gt;&lt;td&gt;atributos&lt;/td&gt;&lt;td&gt;&lt;br&gt;&lt;br&gt;nombre&lt;br&gt;contraseña&lt;br&gt;&lt;br&gt;&lt;br&gt;&lt;/td&gt;&lt;/tr&gt;&lt;/tbody&gt;&lt;/table&gt;" style="verticalAlign=top;align=left;overflow=fill;html=1;whiteSpace=wrap;" vertex="1" parent="1">
          <mxGeometry x="-180" y="-10" width="180" height="110" as="geometry" />
        </mxCell>
        <mxCell id="zYWPEiQ45k5dK-6ogbUJ-13" style="edgeStyle=orthogonalEdgeStyle;rounded=0;orthogonalLoop=1;jettySize=auto;html=1;entryX=0.705;entryY=0.016;entryDx=0;entryDy=0;entryPerimeter=0;" edge="1" parent="1" source="zYWPEiQ45k5dK-6ogbUJ-10" target="zYWPEiQ45k5dK-6ogbUJ-8">
          <mxGeometry relative="1" as="geometry">
            <Array as="points">
              <mxPoint x="87" y="85" />
            </Array>
          </mxGeometry>
        </mxCell>
        <mxCell id="zYWPEiQ45k5dK-6ogbUJ-14" style="edgeStyle=orthogonalEdgeStyle;rounded=0;orthogonalLoop=1;jettySize=auto;html=1;entryX=0.551;entryY=0.004;entryDx=0;entryDy=0;entryPerimeter=0;" edge="1" parent="1" source="zYWPEiQ45k5dK-6ogbUJ-8" target="zYWPEiQ45k5dK-6ogbUJ-6">
          <mxGeometry relative="1" as="geometry" />
        </mxCell>
        <mxCell id="zYWPEiQ45k5dK-6ogbUJ-22" value="m" style="edgeLabel;html=1;align=center;verticalAlign=middle;resizable=0;points=[];" vertex="1" connectable="0" parent="zYWPEiQ45k5dK-6ogbUJ-14">
          <mxGeometry x="-0.8841" y="-1" relative="1" as="geometry">
            <mxPoint as="offset" />
          </mxGeometry>
        </mxCell>
        <mxCell id="zYWPEiQ45k5dK-6ogbUJ-23" value="m" style="edgeLabel;html=1;align=center;verticalAlign=middle;resizable=0;points=[];" vertex="1" connectable="0" parent="zYWPEiQ45k5dK-6ogbUJ-14">
          <mxGeometry x="0.9094" y="-1" relative="1" as="geometry">
            <mxPoint as="offset" />
          </mxGeometry>
        </mxCell>
        <mxCell id="zYWPEiQ45k5dK-6ogbUJ-17" style="edgeStyle=orthogonalEdgeStyle;rounded=0;orthogonalLoop=1;jettySize=auto;html=1;entryX=1;entryY=0;entryDx=0;entryDy=0;" edge="1" parent="1" source="zYWPEiQ45k5dK-6ogbUJ-15" target="zYWPEiQ45k5dK-6ogbUJ-8">
          <mxGeometry relative="1" as="geometry" />
        </mxCell>
        <mxCell id="zYWPEiQ45k5dK-6ogbUJ-26" value="1" style="edgeLabel;html=1;align=center;verticalAlign=middle;resizable=0;points=[];" vertex="1" connectable="0" parent="zYWPEiQ45k5dK-6ogbUJ-17">
          <mxGeometry x="-0.8667" y="-1" relative="1" as="geometry">
            <mxPoint as="offset" />
          </mxGeometry>
        </mxCell>
        <mxCell id="zYWPEiQ45k5dK-6ogbUJ-27" value="1" style="edgeLabel;html=1;align=center;verticalAlign=middle;resizable=0;points=[];" vertex="1" connectable="0" parent="zYWPEiQ45k5dK-6ogbUJ-17">
          <mxGeometry x="0.8148" y="-2" relative="1" as="geometry">
            <mxPoint as="offset" />
          </mxGeometry>
        </mxCell>
        <mxCell id="zYWPEiQ45k5dK-6ogbUJ-15" value="&lt;div style=&quot;box-sizing: border-box; width: 100%; background: rgb(228, 228, 228); padding: 2px;&quot;&gt;Historico&lt;br&gt;&lt;/div&gt;&lt;table style=&quot;width:100%;font-size:1em;&quot; cellpadding=&quot;2&quot; cellspacing=&quot;0&quot;&gt;&lt;tbody&gt;&lt;tr&gt;&lt;td&gt;PK&lt;/td&gt;&lt;td&gt;idHistorico&lt;/td&gt;&lt;/tr&gt;&lt;tr&gt;&lt;td&gt;FK1&lt;/td&gt;&lt;td&gt;idPartida&lt;br&gt;&lt;br&gt;&lt;/td&gt;&lt;/tr&gt;&lt;tr&gt;&lt;td&gt;&lt;br&gt;atributos&lt;/td&gt;&lt;td&gt;&lt;br&gt;puntacion&lt;br&gt;&lt;br&gt;&lt;/td&gt;&lt;/tr&gt;&lt;/tbody&gt;&lt;/table&gt;" style="verticalAlign=top;align=left;overflow=fill;html=1;whiteSpace=wrap;" vertex="1" parent="1">
          <mxGeometry x="340" y="50" width="180" height="120" as="geometry" />
        </mxCell>
        <mxCell id="zYWPEiQ45k5dK-6ogbUJ-16" style="edgeStyle=orthogonalEdgeStyle;rounded=0;orthogonalLoop=1;jettySize=auto;html=1;entryX=0.573;entryY=1.029;entryDx=0;entryDy=0;entryPerimeter=0;" edge="1" parent="1" source="zYWPEiQ45k5dK-6ogbUJ-6" target="zYWPEiQ45k5dK-6ogbUJ-15">
          <mxGeometry relative="1" as="geometry">
            <Array as="points">
              <mxPoint x="380" y="215" />
              <mxPoint x="443" y="215" />
            </Array>
          </mxGeometry>
        </mxCell>
        <mxCell id="zYWPEiQ45k5dK-6ogbUJ-24" value="m" style="edgeLabel;html=1;align=center;verticalAlign=middle;resizable=0;points=[];" vertex="1" connectable="0" parent="zYWPEiQ45k5dK-6ogbUJ-16">
          <mxGeometry x="-0.8262" y="-2" relative="1" as="geometry">
            <mxPoint as="offset" />
          </mxGeometry>
        </mxCell>
        <mxCell id="zYWPEiQ45k5dK-6ogbUJ-25" value="Text" style="edgeLabel;html=1;align=center;verticalAlign=middle;resizable=0;points=[];" vertex="1" connectable="0" parent="zYWPEiQ45k5dK-6ogbUJ-16">
          <mxGeometry x="0.846" y="1" relative="1" as="geometry">
            <mxPoint as="offset" />
          </mxGeometry>
        </mxCell>
        <mxCell id="zYWPEiQ45k5dK-6ogbUJ-18" value="&lt;div style=&quot;box-sizing: border-box; width: 100%; background: rgb(228, 228, 228); padding: 2px;&quot;&gt;Palabra&lt;/div&gt;&lt;table style=&quot;width:100%;font-size:1em;&quot; cellpadding=&quot;2&quot; cellspacing=&quot;0&quot;&gt;&lt;tbody&gt;&lt;tr&gt;&lt;td&gt;PK&lt;/td&gt;&lt;td&gt;idPalabra&lt;/td&gt;&lt;/tr&gt;&lt;tr&gt;&lt;td&gt;FK1&lt;/td&gt;&lt;td&gt;idPartida&lt;br&gt;idPalabra&lt;br&gt;&lt;/td&gt;&lt;/tr&gt;&lt;tr&gt;&lt;td&gt;&lt;br&gt;atributos&lt;/td&gt;&lt;td&gt;&lt;br&gt;&lt;br&gt;descripcion&lt;br&gt;nombre&lt;br&gt;&lt;br&gt;&lt;/td&gt;&lt;/tr&gt;&lt;/tbody&gt;&lt;/table&gt;" style="verticalAlign=top;align=left;overflow=fill;html=1;whiteSpace=wrap;" vertex="1" parent="1">
          <mxGeometry x="540" y="280" width="180" height="120" as="geometry" />
        </mxCell>
        <mxCell id="zYWPEiQ45k5dK-6ogbUJ-19" style="edgeStyle=orthogonalEdgeStyle;rounded=0;orthogonalLoop=1;jettySize=auto;html=1;entryX=0.011;entryY=0.45;entryDx=0;entryDy=0;entryPerimeter=0;" edge="1" parent="1" source="zYWPEiQ45k5dK-6ogbUJ-6" target="zYWPEiQ45k5dK-6ogbUJ-18">
          <mxGeometry relative="1" as="geometry" />
        </mxCell>
        <mxCell id="zYWPEiQ45k5dK-6ogbUJ-28" value="m" style="edgeLabel;html=1;align=center;verticalAlign=middle;resizable=0;points=[];" vertex="1" connectable="0" parent="zYWPEiQ45k5dK-6ogbUJ-19">
          <mxGeometry x="-0.7744" y="-4" relative="1" as="geometry">
            <mxPoint as="offset" />
          </mxGeometry>
        </mxCell>
        <mxCell id="zYWPEiQ45k5dK-6ogbUJ-29" value="1" style="edgeLabel;html=1;align=center;verticalAlign=middle;resizable=0;points=[];" vertex="1" connectable="0" parent="zYWPEiQ45k5dK-6ogbUJ-19">
          <mxGeometry x="0.7446" y="-2" relative="1" as="geometry">
            <mxPoint as="offset" />
          </mxGeometry>
        </mxCell>
      </root>
    </mxGraphModel>
  </diagram>
</mxfile>
